<svg viewBox="0 0 560 460" xmlns="http://www.w3.org/2000/svg" font-family="-apple-system,Segoe UI,Roboto,Helvetica,Arial,sans-serif" role="img" aria-label="Simplified UAV design workflow with iterative feedback loops.">
<defs><marker id="ag" markerWidth="9" markerHeight="9" refX="6" refY="3" orient="auto"><path d="M0,0 L6,3 L0,6 Z" fill="#94a3b8"/></marker><marker id="ao" markerWidth="9" markerHeight="9" refX="6" refY="3" orient="auto"><path d="M0,0 L6,3 L0,6 Z" fill="#e2683c"/></marker></defs>
<line x1="215.0" y1="52" x2="215.0" y2="70" stroke="#94a3b8" stroke-width="1.6" marker-end="url(#ag)"/>
<line x1="215.0" y1="108" x2="215.0" y2="126" stroke="#94a3b8" stroke-width="1.6" marker-end="url(#ag)"/>
<line x1="215.0" y1="164" x2="215.0" y2="182" stroke="#94a3b8" stroke-width="1.6" marker-end="url(#ag)"/>
<line x1="215.0" y1="220" x2="215.0" y2="238" stroke="#94a3b8" stroke-width="1.6" marker-end="url(#ag)"/>
<line x1="215.0" y1="276" x2="215.0" y2="294" stroke="#94a3b8" stroke-width="1.6" marker-end="url(#ag)"/>
<line x1="215.0" y1="332" x2="215.0" y2="350" stroke="#94a3b8" stroke-width="1.6" marker-end="url(#ag)"/>
<line x1="215.0" y1="388" x2="215.0" y2="406" stroke="#94a3b8" stroke-width="1.6" marker-end="url(#ag)"/>
<path d="M 340,370.0 C 470,370.0 470,202.0 342,202.0" fill="none" stroke="#e2683c" stroke-width="1.5" stroke-dasharray="5 4" marker-end="url(#ao)"/>
<text x="468" y="286.0" font-size="11.5" fill="#b4491f" text-anchor="middle" dominant-baseline="middle" style="paint-order:stroke;stroke:#fff;stroke-width:3px">iterate</text>
<path d="M 340,258.0 C 425,258.0 425,90.0 342,90.0" fill="none" stroke="#e2683c" stroke-width="1.5" stroke-dasharray="5 4" marker-end="url(#ao)"/>
<text x="423" y="174.0" font-size="11.5" fill="#b4491f" text-anchor="middle" dominant-baseline="middle" style="paint-order:stroke;stroke:#fff;stroke-width:3px">iterate</text>
<path d="M 340,202.0 C 385,202.0 385,90.0 342,90.0" fill="none" stroke="#e2683c" stroke-width="1.5" stroke-dasharray="5 4" marker-end="url(#ao)"/>
<text x="383" y="146.0" font-size="11.5" fill="#b4491f" text-anchor="middle" dominant-baseline="middle" style="paint-order:stroke;stroke:#fff;stroke-width:3px">iterate</text>
<rect x="90" y="16" width="250" height="36" rx="8" fill="#eef0f2" stroke="#b4b2a9" stroke-width="1.3"/>
<text x="215.0" y="34.0" font-size="13.5" fill="#444441" text-anchor="middle" dominant-baseline="middle" font-weight="500">Mission requirements</text>
<rect x="90" y="72" width="250" height="36" rx="8" fill="#e8f1fc" stroke="#6ba4e0" stroke-width="1.3"/>
<text x="215.0" y="90.0" font-size="13.5" fill="#0d3f80" text-anchor="middle" dominant-baseline="middle" font-weight="500">Weight &amp; sizing (W/S, W/P)</text>
<rect x="90" y="128" width="250" height="36" rx="8" fill="#e1f4ee" stroke="#4fb99a" stroke-width="1.3"/>
<text x="215.0" y="146.0" font-size="13.5" fill="#0f6e56" text-anchor="middle" dominant-baseline="middle" font-weight="500">Airframe design</text>
<rect x="90" y="184" width="250" height="36" rx="8" fill="#e1f4ee" stroke="#4fb99a" stroke-width="1.3"/>
<text x="215.0" y="202.0" font-size="13.5" fill="#0f6e56" text-anchor="middle" dominant-baseline="middle" font-weight="500">Aerodynamic analysis</text>
<rect x="90" y="240" width="250" height="36" rx="8" fill="#e1f4ee" stroke="#4fb99a" stroke-width="1.3"/>
<text x="215.0" y="258.0" font-size="13.5" fill="#0f6e56" text-anchor="middle" dominant-baseline="middle" font-weight="500">Propulsion &amp; battery</text>
<rect x="90" y="296" width="250" height="36" rx="8" fill="#eeecfb" stroke="#9a90dd" stroke-width="1.3"/>
<text x="215.0" y="314.0" font-size="13.5" fill="#3c3489" text-anchor="middle" dominant-baseline="middle" font-weight="500">Moments &amp; 6-DOF</text>
<rect x="90" y="352" width="250" height="36" rx="8" fill="#eeecfb" stroke="#9a90dd" stroke-width="1.3"/>
<text x="215.0" y="370.0" font-size="13.5" fill="#3c3489" text-anchor="middle" dominant-baseline="middle" font-weight="500">Trim &amp; stability</text>
<rect x="90" y="408" width="250" height="36" rx="8" fill="#eeecfb" stroke="#9a90dd" stroke-width="1.3"/>
<text x="215.0" y="426.0" font-size="13.5" fill="#3c3489" text-anchor="middle" dominant-baseline="middle" font-weight="500">Control design</text>
</svg>